<?xml version="1.0" encoding="UTF-8"?>
<svg xmlns="http://www.w3.org/2000/svg" xmlns:xlink="http://www.w3.org/1999/xlink" width="30px" height="30px" viewBox="0 0 30 30" version="1.1">
<g id="surface1">
<path style=" stroke:none;fill-rule:nonzero;fill:rgb(0%,0%,0%);fill-opacity:1;" d="M 8.296875 15.96875 C 8.03125 15.96875 7.820312 16.183594 7.820312 16.445312 C 7.820312 16.710938 8.03125 16.925781 8.296875 16.925781 C 8.5625 16.925781 8.777344 16.710938 8.777344 16.445312 C 8.777344 16.183594 8.5625 15.96875 8.296875 15.96875 Z M 8.296875 15.96875 "/>
<path style=" stroke:none;fill-rule:nonzero;fill:rgb(0%,0%,0%);fill-opacity:1;" d="M 21.703125 15.96875 C 21.4375 15.96875 21.222656 16.183594 21.222656 16.445312 C 21.222656 16.710938 21.4375 16.925781 21.703125 16.925781 C 21.964844 16.925781 22.179688 16.710938 22.179688 16.445312 C 22.179688 16.183594 21.964844 15.96875 21.703125 15.96875 Z M 21.703125 15.96875 "/>
<path style=" stroke:none;fill-rule:nonzero;fill:rgb(0%,0%,0%);fill-opacity:1;" d="M 9.546875 17.230469 C 9.871094 17.25 10.230469 17.269531 10.601562 17.28125 L 10.601562 14.960938 C 10.257812 15.1875 9.914062 15.394531 9.546875 15.554688 Z M 9.546875 17.230469 "/>
<path style=" stroke:none;fill-rule:nonzero;fill:rgb(0%,0%,0%);fill-opacity:1;" d="M 14.472656 12.777344 L 14.472656 17.335938 L 15.527344 17.335938 L 15.527344 12.777344 C 15.355469 12.75 15.179688 12.738281 15 12.738281 C 14.820312 12.738281 14.644531 12.75 14.472656 12.777344 Z M 14.472656 12.777344 "/>
<path style=" stroke:none;fill-rule:nonzero;fill:rgb(0%,0%,0%);fill-opacity:1;" d="M 12.011719 17.316406 C 12.375 17.324219 12.730469 17.328125 13.0625 17.328125 L 13.0625 13.28125 C 12.703125 13.476562 12.355469 13.707031 12.011719 13.945312 Z M 12.011719 17.316406 "/>
<path style=" stroke:none;fill-rule:nonzero;fill:rgb(0%,0%,0%);fill-opacity:1;" d="M 19.398438 17.28125 C 19.769531 17.269531 20.125 17.25 20.449219 17.230469 L 20.449219 15.554688 C 20.085938 15.394531 19.742188 15.1875 19.398438 14.960938 Z M 19.398438 17.28125 "/>
<path style=" stroke:none;fill-rule:nonzero;fill:rgb(0%,0%,0%);fill-opacity:1;" d="M 16.933594 17.328125 C 17.269531 17.328125 17.625 17.324219 17.988281 17.316406 L 17.988281 13.945312 C 17.644531 13.707031 17.296875 13.472656 16.933594 13.28125 Z M 16.933594 17.328125 "/>
<path style=" stroke:none;fill-rule:nonzero;fill:rgb(0%,0%,0%);fill-opacity:1;" d="M 23.703125 16.496094 C 23.699219 16.269531 23.695312 16.039062 23.667969 15.804688 C 23.648438 15.628906 23.609375 15.445312 23.539062 15.257812 C 23.472656 15.074219 23.367188 14.886719 23.210938 14.722656 L 23.222656 14.734375 L 23.210938 14.71875 L 23.207031 14.71875 C 23.152344 14.65625 23.09375 14.609375 23.03125 14.5625 C 22.894531 12.554688 22.101562 10.617188 20.792969 9.128906 C 20.320312 8.589844 19.773438 8.113281 19.171875 7.714844 C 19.183594 7.695312 19.195312 7.679688 19.207031 7.660156 C 19.394531 7.316406 19.46875 6.960938 19.46875 6.640625 C 19.46875 6.265625 19.375 5.9375 19.246094 5.683594 C 19.234375 5.660156 19.222656 5.640625 19.210938 5.617188 C 19.324219 5.355469 19.402344 5.050781 19.402344 4.710938 C 19.402344 4.144531 19.1875 3.550781 18.753906 2.949219 C 18.738281 2.507812 18.585938 2.097656 18.363281 1.753906 C 18.007812 1.207031 17.484375 0.789062 16.902344 0.484375 C 16.316406 0.183594 15.660156 0 15 0 C 14.121094 0.00390625 13.246094 0.324219 12.539062 0.828125 C 12.183594 1.082031 11.871094 1.390625 11.636719 1.753906 C 11.414062 2.097656 11.261719 2.507812 11.246094 2.949219 C 10.8125 3.550781 10.597656 4.144531 10.597656 4.710938 C 10.597656 5.050781 10.675781 5.355469 10.789062 5.621094 C 10.730469 5.730469 10.675781 5.84375 10.636719 5.972656 C 10.574219 6.167969 10.53125 6.394531 10.53125 6.640625 C 10.53125 6.960938 10.601562 7.316406 10.792969 7.660156 C 10.800781 7.679688 10.816406 7.695312 10.828125 7.714844 C 10.226562 8.113281 9.679688 8.589844 9.203125 9.128906 C 7.898438 10.617188 7.105469 12.554688 6.96875 14.5625 C 6.84375 14.65625 6.734375 14.765625 6.648438 14.890625 C 6.464844 15.160156 6.382812 15.453125 6.34375 15.714844 C 6.304688 15.984375 6.300781 16.242188 6.300781 16.496094 C 6.300781 16.730469 6.308594 16.964844 6.351562 17.203125 C 6.414062 17.566406 6.578125 17.953125 6.90625 18.25 L 6.878906 18.226562 L 6.90625 18.25 C 7.070312 18.398438 7.261719 18.503906 7.464844 18.589844 C 7.816406 19.410156 8.257812 20.136719 8.679688 20.800781 C 8.730469 20.882812 8.785156 20.960938 8.835938 21.042969 C 8.839844 21.148438 8.84375 21.257812 8.84375 21.386719 L 8.84375 21.390625 C 8.84375 21.914062 8.785156 22.589844 8.640625 23.117188 C 8.570312 23.378906 8.476562 23.609375 8.378906 23.757812 L 8.386719 23.75 L 8.378906 23.757812 C 8.285156 23.910156 8.203125 23.96875 8.15625 23.988281 L 8.144531 23.992188 L 8.15625 23.988281 C 7.730469 24.167969 7.367188 24.398438 7.085938 24.703125 C 6.800781 25.011719 6.617188 25.417969 6.617188 25.859375 L 6.617188 25.867188 C 6.621094 26.355469 6.832031 26.800781 7.152344 27.183594 C 7.476562 27.566406 7.917969 27.914062 8.484375 28.246094 L 8.457031 28.230469 L 8.484375 28.246094 L 8.488281 28.25 C 9.417969 28.792969 10.644531 29.214844 11.839844 29.519531 C 13.039062 29.820312 14.183594 29.996094 15 30 C 15.816406 29.996094 16.960938 29.820312 18.160156 29.519531 C 19.355469 29.214844 20.578125 28.792969 21.511719 28.25 C 22.078125 27.914062 22.523438 27.566406 22.847656 27.183594 C 23.167969 26.800781 23.382812 26.351562 23.382812 25.863281 L 23.382812 25.859375 C 23.382812 25.417969 23.199219 25.015625 22.917969 24.707031 L 22.921875 24.714844 L 22.914062 24.703125 C 22.632812 24.394531 22.265625 24.167969 21.84375 23.988281 C 21.796875 23.96875 21.714844 23.910156 21.617188 23.757812 C 21.476562 23.539062 21.339844 23.132812 21.265625 22.699219 L 21.265625 22.695312 C 21.1875 22.257812 21.152344 21.78125 21.152344 21.386719 C 21.152344 21.257812 21.160156 21.148438 21.164062 21.042969 C 21.214844 20.960938 21.269531 20.882812 21.320312 20.800781 C 21.742188 20.140625 22.179688 19.414062 22.53125 18.59375 C 22.605469 18.5625 22.671875 18.53125 22.738281 18.496094 C 23.132812 18.285156 23.414062 17.949219 23.550781 17.566406 C 23.679688 17.203125 23.699219 16.847656 23.703125 16.496094 Z M 12.339844 6.042969 C 12.171875 5.882812 11.984375 5.695312 11.839844 5.472656 C 11.699219 5.25 11.601562 5.003906 11.601562 4.710938 C 11.601562 4.464844 11.675781 4.167969 11.875 3.816406 C 11.960938 3.976562 12.070312 4.132812 12.207031 4.28125 L 12.628906 3.894531 C 12.347656 3.582031 12.246094 3.292969 12.246094 3.015625 C 12.246094 2.777344 12.328125 2.535156 12.480469 2.296875 C 12.707031 1.945312 13.101562 1.613281 13.558594 1.378906 C 14.015625 1.140625 14.535156 1.003906 15 1.003906 C 15.621094 1 16.335938 1.253906 16.875 1.640625 C 17.144531 1.835938 17.367188 2.0625 17.519531 2.296875 C 17.671875 2.535156 17.753906 2.777344 17.753906 3.015625 C 17.753906 3.292969 17.652344 3.582031 17.367188 3.894531 L 17.792969 4.28125 C 17.929688 4.132812 18.039062 3.976562 18.121094 3.816406 C 18.324219 4.167969 18.394531 4.464844 18.398438 4.710938 C 18.398438 5.097656 18.226562 5.410156 18.003906 5.683594 C 17.894531 5.816406 17.773438 5.9375 17.660156 6.042969 C 17.546875 6.152344 17.445312 6.242188 17.359375 6.34375 L 17.800781 6.710938 C 17.839844 6.660156 17.9375 6.570312 18.054688 6.460938 C 18.148438 6.371094 18.253906 6.269531 18.359375 6.148438 C 18.414062 6.273438 18.464844 6.453125 18.464844 6.640625 C 18.464844 6.8125 18.429688 6.992188 18.328125 7.175781 C 18.261719 7.300781 18.15625 7.425781 18.011719 7.550781 C 17.1875 7.164062 16.269531 6.929688 15.285156 6.890625 L 15.285156 2.152344 L 14.710938 2.152344 L 14.710938 6.890625 C 13.726562 6.929688 12.8125 7.164062 11.988281 7.550781 C 11.84375 7.425781 11.742188 7.300781 11.671875 7.175781 C 11.570312 6.992188 11.535156 6.8125 11.535156 6.640625 C 11.535156 6.449219 11.585938 6.273438 11.644531 6.148438 C 11.746094 6.265625 11.851562 6.371094 11.945312 6.460938 C 12.0625 6.570312 12.160156 6.660156 12.199219 6.710938 L 12.636719 6.34375 C 12.554688 6.242188 12.453125 6.152344 12.339844 6.042969 Z M 9.957031 9.789062 C 11.199219 8.378906 12.933594 7.460938 15 7.457031 C 17.0625 7.460938 18.796875 8.378906 20.039062 9.789062 C 21.199219 11.109375 21.917969 12.851562 22.035156 14.644531 C 21.996094 14.640625 21.957031 14.632812 21.914062 14.628906 L 21.898438 14.628906 C 21.457031 14.628906 21.003906 14.460938 20.519531 14.175781 C 19.792969 13.753906 19.015625 13.085938 18.125 12.519531 C 17.234375 11.949219 16.214844 11.472656 15 11.472656 C 14.191406 11.472656 13.464844 11.6875 12.808594 11.996094 C 11.828125 12.457031 10.996094 13.136719 10.226562 13.683594 C 9.839844 13.957031 9.472656 14.199219 9.121094 14.367188 C 8.769531 14.535156 8.433594 14.628906 8.101562 14.628906 L 8.085938 14.628906 C 8.042969 14.632812 8.003906 14.636719 7.964844 14.640625 C 8.082031 12.851562 8.800781 11.105469 9.957031 9.789062 Z M 21.359375 24.863281 C 21.390625 24.878906 21.417969 24.898438 21.449219 24.910156 C 21.78125 25.050781 22.023438 25.214844 22.171875 25.378906 C 22.320312 25.546875 22.378906 25.699219 22.378906 25.863281 C 22.378906 26.046875 22.296875 26.273438 22.078125 26.539062 C 21.859375 26.800781 21.503906 27.089844 21.003906 27.382812 C 20.210938 27.847656 19.046875 28.257812 17.914062 28.546875 C 16.78125 28.832031 15.671875 28.996094 15 28.996094 C 14.328125 28.996094 13.21875 28.832031 12.085938 28.546875 C 10.953125 28.257812 9.785156 27.847656 8.996094 27.382812 C 8.496094 27.089844 8.140625 26.800781 7.921875 26.539062 C 7.703125 26.273438 7.621094 26.046875 7.621094 25.863281 C 7.621094 25.699219 7.679688 25.546875 7.828125 25.378906 C 7.976562 25.214844 8.214844 25.050781 8.546875 24.910156 C 8.589844 24.894531 8.628906 24.867188 8.671875 24.84375 C 8.84375 25.046875 9.113281 25.273438 9.480469 25.523438 C 10.585938 26.261719 12.5625 27.136719 15 27.136719 L 15.046875 27.136719 C 16.667969 27.136719 18.089844 26.746094 19.183594 26.269531 C 19.730469 26.03125 20.199219 25.769531 20.566406 25.523438 C 20.921875 25.28125 21.1875 25.058594 21.359375 24.863281 Z M 20.472656 20.257812 C 19.964844 21.054688 19.449219 21.808594 19.109375 22.597656 L 19.636719 22.824219 C 19.777344 22.496094 19.957031 22.164062 20.160156 21.824219 C 20.1875 22.324219 20.253906 22.875 20.390625 23.382812 C 20.480469 23.710938 20.601562 24.023438 20.769531 24.292969 C 20.8125 24.363281 20.863281 24.433594 20.917969 24.496094 C 20.792969 24.632812 20.566406 24.832031 20.246094 25.046875 C 19.230469 25.730469 17.339844 26.566406 15.046875 26.5625 L 15 26.5625 C 13.46875 26.5625 12.121094 26.195312 11.089844 25.742188 C 10.574219 25.519531 10.136719 25.273438 9.800781 25.046875 C 9.460938 24.820312 9.21875 24.605469 9.105469 24.46875 C 9.148438 24.414062 9.191406 24.355469 9.230469 24.292969 C 9.480469 23.890625 9.628906 23.386719 9.722656 22.875 C 9.785156 22.519531 9.820312 22.160156 9.835938 21.824219 C 10.039062 22.164062 10.222656 22.496094 10.363281 22.824219 L 10.890625 22.597656 C 10.550781 21.808594 10.035156 21.054688 9.523438 20.257812 C 9.148438 19.671875 8.773438 19.058594 8.472656 18.402344 C 9.222656 18.511719 10.378906 18.609375 11.550781 18.6875 C 12.730469 18.761719 13.921875 18.8125 14.710938 18.824219 L 14.710938 25.242188 L 15.285156 25.242188 L 15.285156 18.824219 C 16.078125 18.8125 17.269531 18.761719 18.449219 18.6875 C 19.621094 18.609375 20.773438 18.511719 21.527344 18.402344 C 21.222656 19.058594 20.851562 19.671875 20.472656 20.257812 Z M 22.660156 17.023438 C 22.617188 17.246094 22.546875 17.386719 22.421875 17.503906 C 22.324219 17.589844 22.171875 17.671875 21.945312 17.738281 L 21.8125 17.691406 C 21.804688 17.71875 21.792969 17.746094 21.78125 17.773438 C 21.757812 17.777344 21.738281 17.785156 21.710938 17.789062 C 21.042969 17.910156 19.734375 18.027344 18.410156 18.113281 C 17.089844 18.199219 15.746094 18.253906 15 18.253906 C 14.253906 18.253906 12.910156 18.199219 11.589844 18.113281 C 10.265625 18.027344 8.953125 17.910156 8.289062 17.789062 L 8.214844 17.773438 C 8.207031 17.746094 8.195312 17.71875 8.183594 17.691406 L 8.054688 17.734375 C 7.925781 17.699219 7.820312 17.660156 7.738281 17.613281 C 7.546875 17.507812 7.460938 17.394531 7.390625 17.222656 C 7.328125 17.050781 7.300781 16.804688 7.300781 16.496094 C 7.300781 16.285156 7.308594 16.089844 7.328125 15.925781 C 7.355469 15.675781 7.421875 15.507812 7.519531 15.40625 C 7.570312 15.355469 7.632812 15.3125 7.726562 15.273438 C 7.820312 15.238281 7.945312 15.210938 8.113281 15.203125 C 8.699219 15.199219 9.246094 14.976562 9.769531 14.671875 C 10.5625 14.207031 11.335938 13.542969 12.183594 13 C 13.03125 12.460938 13.9375 12.046875 15 12.046875 C 15.707031 12.046875 16.34375 12.230469 16.945312 12.511719 C 17.84375 12.9375 18.652344 13.589844 19.441406 14.152344 C 19.835938 14.433594 20.226562 14.691406 20.628906 14.882812 C 21.03125 15.074219 21.449219 15.199219 21.886719 15.203125 C 22.109375 15.214844 22.257812 15.257812 22.355469 15.3125 C 22.429688 15.355469 22.480469 15.402344 22.527344 15.464844 C 22.589844 15.554688 22.636719 15.691406 22.664062 15.867188 C 22.691406 16.042969 22.699219 16.257812 22.695312 16.496094 C 22.699219 16.699219 22.6875 16.878906 22.660156 17.023438 Z M 22.660156 17.023438 "/>
<path style=" stroke:none;fill-rule:nonzero;fill:rgb(0%,0%,0%);fill-opacity:1;" d="M 10.792969 7.660156 C 10.789062 7.65625 10.789062 7.65625 10.789062 7.65625 Z M 10.792969 7.660156 "/>
</g>
</svg>