<?xml version="1.0" encoding="UTF-8"?>
<svg xmlns="http://www.w3.org/2000/svg" xmlns:xlink="http://www.w3.org/1999/xlink" width="30px" height="30px" viewBox="0 0 30 30" version="1.1">
<g id="surface1">
<path style=" stroke:none;fill-rule:nonzero;fill:rgb(0%,0%,0%);fill-opacity:1;" d="M 15 12.324219 C 13.523438 12.324219 12.324219 13.523438 12.324219 15 C 12.324219 16.476562 13.523438 17.675781 15 17.675781 C 16.476562 17.675781 17.675781 16.476562 17.675781 15 C 17.675781 13.523438 16.476562 12.324219 15 12.324219 Z M 7.507812 20.316406 L 6.917969 20.171875 C 2.523438 19.058594 0 17.171875 0 14.996094 C 0 12.816406 2.523438 10.933594 6.917969 9.820312 L 7.507812 9.671875 L 7.675781 10.257812 C 8.121094 11.792969 8.691406 13.285156 9.378906 14.730469 L 9.507812 14.996094 L 9.378906 15.261719 C 8.691406 16.703125 8.121094 18.199219 7.675781 19.734375 Z M 6.644531 11.1875 C 3.304688 12.125 1.253906 13.5625 1.253906 14.996094 C 1.253906 16.425781 3.304688 17.859375 6.644531 18.804688 C 7.054688 17.5 7.550781 16.230469 8.125 14.996094 C 7.546875 13.757812 7.054688 12.492188 6.644531 11.1875 Z M 22.492188 20.316406 L 22.324219 19.730469 C 21.878906 18.199219 21.308594 16.703125 20.621094 15.261719 L 20.492188 14.996094 L 20.621094 14.726562 C 21.308594 13.289062 21.878906 11.792969 22.324219 10.253906 L 22.492188 9.671875 L 23.082031 9.820312 C 27.476562 10.933594 30 12.816406 30 14.996094 C 30 17.171875 27.476562 19.058594 23.082031 20.171875 Z M 21.875 14.996094 C 22.476562 16.292969 22.972656 17.570312 23.355469 18.804688 C 26.699219 17.863281 28.746094 16.425781 28.746094 14.996094 C 28.746094 13.5625 26.695312 12.128906 23.355469 11.1875 C 22.945312 12.484375 22.449219 13.757812 21.875 14.996094 Z M 6.636719 11.179688 L 6.46875 10.59375 C 5.234375 6.238281 5.609375 3.117188 7.5 2.027344 C 9.355469 0.957031 12.328125 2.222656 15.449219 5.425781 L 15.875 5.859375 L 15.449219 6.292969 C 14.339844 7.445312 13.332031 8.6875 12.421875 10.003906 L 12.25 10.242188 L 11.957031 10.269531 C 10.359375 10.394531 8.777344 10.648438 7.226562 11.03125 Z M 9.007812 2.894531 C 8.671875 2.894531 8.375 2.964844 8.125 3.109375 C 6.882812 3.828125 6.664062 6.320312 7.519531 9.679688 C 8.851562 9.378906 10.199219 9.167969 11.5625 9.046875 C 12.34375 7.933594 13.203125 6.871094 14.125 5.867188 C 12.175781 3.96875 10.332031 2.894531 9.007812 2.894531 Z M 20.996094 28.34375 C 20.992188 28.34375 20.992188 28.34375 20.996094 28.34375 C 19.214844 28.34375 16.921875 27.007812 14.550781 24.566406 L 14.125 24.128906 L 14.550781 23.695312 C 15.660156 22.542969 16.667969 21.304688 17.578125 19.984375 L 17.742188 19.746094 L 18.039062 19.714844 C 19.632812 19.59375 21.214844 19.339844 22.773438 18.953125 L 23.363281 18.808594 L 23.53125 19.394531 C 24.765625 23.75 24.390625 26.871094 22.5 27.957031 C 22.039062 28.222656 21.523438 28.355469 20.996094 28.34375 Z M 15.875 24.121094 C 17.820312 26.019531 19.667969 27.09375 20.992188 27.09375 L 20.996094 27.09375 C 21.328125 27.09375 21.625 27.023438 21.875 26.878906 C 23.113281 26.160156 23.339844 23.671875 22.480469 20.3125 C 21.148438 20.609375 19.792969 20.820312 18.4375 20.9375 C 17.65625 22.054688 16.796875 23.117188 15.875 24.121094 Z M 23.363281 11.179688 L 22.773438 11.03125 C 21.214844 10.648438 19.632812 10.394531 18.039062 10.269531 L 17.742188 10.242188 L 17.578125 10.003906 C 16.667969 8.6875 15.660156 7.445312 14.550781 6.292969 L 14.125 5.859375 L 14.550781 5.425781 C 17.671875 2.222656 20.644531 0.957031 22.5 2.027344 C 24.390625 3.113281 24.765625 6.238281 23.53125 10.59375 Z M 18.4375 9.046875 C 19.863281 9.179688 21.222656 9.390625 22.480469 9.679688 C 23.339844 6.320312 23.117188 3.828125 21.875 3.109375 C 20.640625 2.398438 18.316406 3.492188 15.875 5.871094 C 16.796875 6.875 17.652344 7.933594 18.4375 9.046875 Z M 9.007812 28.34375 C 8.480469 28.355469 7.957031 28.222656 7.5 27.960938 C 5.609375 26.871094 5.234375 23.75 6.46875 19.394531 L 6.636719 18.808594 L 7.226562 18.957031 C 8.671875 19.320312 10.265625 19.574219 11.957031 19.71875 L 12.25 19.746094 L 12.417969 19.984375 C 13.324219 21.304688 14.335938 22.542969 15.445312 23.695312 L 15.867188 24.132812 L 15.445312 24.566406 C 13.078125 27.007812 10.785156 28.34375 9.007812 28.34375 Z M 7.519531 20.3125 C 6.660156 23.671875 6.886719 26.164062 8.125 26.878906 C 9.359375 27.582031 11.679688 26.5 14.125 24.121094 C 13.203125 23.113281 12.34375 22.054688 11.5625 20.9375 C 10.199219 20.820312 8.851562 20.609375 7.519531 20.3125 Z M 15 21.097656 C 13.96875 21.097656 12.914062 21.054688 11.855469 20.964844 L 11.5625 20.941406 L 11.390625 20.699219 C 10.796875 19.839844 10.230469 18.957031 9.707031 18.046875 C 9.179688 17.136719 8.695312 16.210938 8.246094 15.261719 L 8.121094 14.996094 L 8.246094 14.726562 C 8.695312 13.78125 9.179688 12.851562 9.707031 11.945312 C 10.222656 11.050781 10.789062 10.15625 11.390625 9.292969 L 11.5625 9.046875 L 11.855469 9.023438 C 13.949219 8.847656 16.054688 8.847656 18.144531 9.023438 L 18.4375 9.046875 L 18.609375 9.292969 C 19.804688 11.011719 20.859375 12.832031 21.753906 14.726562 L 21.878906 14.996094 L 21.753906 15.261719 C 20.859375 17.15625 19.808594 18.980469 18.609375 20.699219 L 18.4375 20.941406 L 18.144531 20.964844 C 17.089844 21.054688 16.03125 21.097656 15 21.097656 Z M 12.257812 19.742188 C 14.101562 19.882812 15.898438 19.882812 17.75 19.742188 C 18.777344 18.234375 19.695312 16.644531 20.492188 14.996094 C 19.703125 13.34375 18.785156 11.757812 17.742188 10.246094 C 15.917969 10.105469 14.082031 10.105469 12.257812 10.246094 C 11.214844 11.757812 10.296875 13.34375 9.507812 14.996094 C 10.304688 16.644531 11.222656 18.230469 12.257812 19.742188 Z M 12.257812 19.742188 "/>
</g>
</svg>